<svg width="40" height="40" viewBox="0 0 40 40" fill="none" xmlns="http://www.w3.org/2000/svg">
<circle cx="20" cy="20" r="20" fill="#F2F6FF"/>
<path d="M17.6734 14.8181C17.8876 14.8627 18.0414 15.0004 18.1909 15.1536C19.5434 16.5413 20.8981 17.9268 22.253 19.3119C22.4663 19.5299 22.5558 19.7834 22.4527 20.0802C22.4156 20.1874 22.3468 20.2923 22.268 20.3733C20.876 21.8037 19.4804 23.231 18.0845 24.6578C17.8731 24.8741 17.6194 24.9478 17.3366 24.8395C17.0709 24.7382 16.92 24.5299 16.8922 24.2399C16.8695 24.0056 16.9612 23.8128 17.1216 23.6494C17.444 23.3212 17.7651 22.9915 18.0867 22.6626C18.9746 21.7543 19.8623 20.8459 20.7505 19.9375C20.7753 19.9121 20.8037 19.8906 20.8664 19.8359C20.8179 19.8077 20.778 19.7946 20.7516 19.7678C19.5434 18.5336 18.3369 17.2981 17.1292 16.0631C16.9225 15.8515 16.8338 15.6061 16.9236 15.3125C16.9942 15.081 17.1464 14.9278 17.3731 14.8535C17.4094 14.8418 17.4454 14.8298 17.4814 14.8178L17.6737 14.8178L17.6734 14.8181Z" fill="#007BFF"/>
</svg>
